# Blender v2.90.1 OBJ File: ''
# www.blender.org
o Cube.002
v 0.793950 1.683769 0.545147
v 0.793950 -0.316231 0.545147
v -1.056117 1.683769 1.304919
v -1.056117 -0.316231 1.304919
v 0.034178 1.683769 -1.304919
v 0.034178 -0.316231 -1.304919
v -1.815889 1.683769 -0.545147
v -1.815889 -0.316231 -0.545147
vt 0.875000 0.500000
vt 0.625000 0.750000
vt 0.625000 0.500000
vt 0.375000 1.000000
vt 0.375000 0.750000
vt 0.625000 0.000000
vt 0.375000 0.250000
vt 0.375000 0.000000
vt 0.375000 0.500000
vt 0.125000 0.750000
vt 0.125000 0.500000
vt 0.625000 0.250000
vt 0.875000 0.750000
vt 0.625000 1.000000
vn 0.0000 1.0000 0.0000
vn -0.9250 0.0000 0.3799
vn -0.3799 0.0000 -0.9250
vn 0.0000 -1.0000 0.0000
vn 0.3799 0.0000 0.9250
vn 0.9250 0.0000 -0.3799
s off
f 5/1/1 3/2/1 1/3/1
f 3/2/2 8/4/2 4/5/2
f 7/6/3 6/7/3 8/8/3
f 2/9/4 8/10/4 6/11/4
f 1/3/5 4/5/5 2/9/5
f 5/12/6 2/9/6 6/7/6
f 5/1/1 7/13/1 3/2/1
f 3/2/2 7/14/2 8/4/2
f 7/6/3 5/12/3 6/7/3
f 2/9/4 4/5/4 8/10/4
f 1/3/5 3/2/5 4/5/5
f 5/12/6 1/3/6 2/9/6
