# Blender v2.90.1 OBJ File: ''
# www.blender.org
o Cube
v 1.063953 2.499579 -1.063953
v 1.633071 -1.633071 -1.633071
v 1.063953 2.499579 1.063953
v 1.633071 -1.633071 1.633071
v -1.063953 2.499579 -1.063953
v -1.633071 -1.633071 -1.633071
v -1.063953 2.499579 1.063953
v -1.633071 -1.633071 1.633071
v 1.633071 1.633071 1.633071
v -1.633071 1.633071 1.633071
v 1.633071 1.633071 -1.633071
v -1.633071 1.633071 -1.633071
vn 0.0000 1.0000 0.0000
vn 0.0000 0.0000 1.0000
vn -1.0000 0.0000 0.0000
vn 0.0000 -1.0000 0.0000
vn 1.0000 0.0000 0.0000
vn 0.0000 0.0000 -1.0000
vn 0.0000 0.5490 0.8358
vn 0.8358 0.5490 0.0000
vn -0.8358 0.5490 0.0000
vn 0.0000 0.5490 -0.8358
s off
f 5//1 3//1 1//1
f 9//2 8//2 4//2
f 10//3 6//3 8//3
f 2//4 8//4 6//4
f 11//5 4//5 2//5
f 12//6 2//6 6//6
f 7//7 9//7 3//7
f 3//8 11//8 1//8
f 5//9 10//9 7//9
f 1//10 12//10 5//10
f 5//1 7//1 3//1
f 9//2 10//2 8//2
f 10//3 12//3 6//3
f 2//4 4//4 8//4
f 11//5 9//5 4//5
f 12//6 11//6 2//6
f 7//7 10//7 9//7
f 3//8 9//8 11//8
f 5//9 12//9 10//9
f 1//10 11//10 12//10
