# Blender v2.90.1 OBJ File: 'drumsetV2Export.blend'
# www.blender.org
o drumsetV4_Detail_Cylinder.020
v 0.302689 2.086599 -0.421633
v 0.526121 2.122886 -0.408794
v 0.534936 2.055818 -0.535349
v 0.506617 2.119686 -0.539791
v 0.501202 2.160888 -0.462046
v 0.313360 2.121717 -0.458689
v 0.318307 2.084075 -0.529718
v 0.309715 2.033139 -0.522511
v -0.539890 1.975859 -0.421633
v -0.765111 1.953180 -0.408794
v -0.756296 1.886111 -0.535349
v -0.745442 1.955128 -0.539791
v -0.750857 1.996329 -0.462046
v -0.559273 2.007027 -0.458689
v -0.554326 1.969385 -0.529718
v -0.532863 1.922398 -0.522511
v 0.298576 2.117894 0.345430
v 0.523453 2.143188 0.359360
v 0.518025 2.184488 0.222040
v 0.491854 2.232010 0.266285
v 0.495189 2.206639 0.350643
v 0.307108 2.169284 0.342864
v 0.304062 2.192464 0.265794
v 0.294249 2.150815 0.235971
v -0.544003 2.007154 0.345430
v -0.767779 1.973481 0.359360
v -0.773207 2.014781 0.222040
v -0.760204 2.067452 0.266285
v -0.756870 2.042080 0.350643
v -0.565525 2.054594 0.342864
v -0.568571 2.077774 0.265794
v -0.548330 2.040075 0.235971
v 0.366347 1.602253 0.910144
v 0.592347 1.619007 0.917007
v 0.575855 1.744483 0.849362
v 0.555689 1.746313 0.916375
v 0.565820 1.669231 0.957931
v 0.376545 1.640968 0.943572
v 0.367289 1.711391 0.905606
v 0.353201 1.702271 0.856224
v -0.476232 1.491512 0.910144
v -0.698886 1.449300 0.917007
v -0.715377 1.574776 0.849362
v -0.696369 1.581755 0.916375
v -0.686238 1.504673 0.957931
v -0.496088 1.526278 0.943572
v -0.505344 1.596701 0.905606
v -0.489377 1.591530 0.856224
v 0.466302 0.841731 0.941708
v 0.692445 0.857402 0.937483
v 0.674550 0.993551 0.979138
v 0.660729 0.947110 1.029665
v 0.671722 0.863471 1.004076
v 0.480995 0.846249 0.991548
v 0.470952 0.922663 1.014927
v 0.452039 0.950256 0.974913
v -0.376277 0.730990 0.941708
v -0.598788 0.687695 0.937483
v -0.616682 0.823844 0.979138
v -0.591330 0.782551 1.029665
v -0.580337 0.698912 1.004076
v -0.391638 0.731559 0.991548
v -0.401681 0.807973 1.014927
v -0.390540 0.839516 0.974913
v 0.539890 0.281831 0.421632
v 0.765111 0.304511 0.408794
v 0.756297 0.371579 0.535349
v 0.745442 0.302562 0.539791
v 0.750857 0.261361 0.462046
v 0.559273 0.250664 0.458689
v 0.554326 0.288306 0.529717
v 0.532864 0.335292 0.522510
v -0.302689 0.171091 0.421632
v -0.526122 0.134804 0.408794
v -0.534936 0.201872 0.535349
v -0.506617 0.138004 0.539791
v -0.501202 0.096803 0.462046
v -0.313360 0.135973 0.458689
v -0.318307 0.173615 0.529717
v -0.309715 0.224552 0.522510
v 0.544003 0.250536 -0.345430
v 0.767779 0.284209 -0.359361
v 0.773208 0.242909 -0.222041
v 0.760205 0.190238 -0.266286
v 0.756870 0.215610 -0.350644
v 0.565525 0.203097 -0.342865
v 0.568572 0.179917 -0.265794
v 0.548330 0.217615 -0.235971
v -0.298576 0.139796 -0.345430
v -0.523454 0.114502 -0.359361
v -0.518025 0.073202 -0.222041
v -0.491854 0.025680 -0.266285
v -0.495189 0.051052 -0.350644
v -0.307108 0.088406 -0.342865
v -0.304062 0.065226 -0.265794
v -0.294249 0.106875 -0.235971
v 0.476232 0.766178 -0.910145
v 0.698886 0.808390 -0.917007
v 0.715378 0.682914 -0.849362
v 0.696370 0.675936 -0.916376
v 0.686239 0.753018 -0.957931
v 0.496088 0.731413 -0.943572
v 0.505344 0.660990 -0.905607
v 0.489378 0.666160 -0.856224
v -0.366347 0.655438 -0.910145
v -0.592347 0.638683 -0.917007
v -0.575855 0.513207 -0.849362
v -0.555690 0.511377 -0.916376
v -0.565821 0.588459 -0.957931
v -0.376545 0.616722 -0.943572
v -0.367289 0.546299 -0.905607
v -0.353201 0.555420 -0.856224
v 0.376277 1.526700 -0.941709
v 0.598788 1.569995 -0.937483
v 0.616683 1.433846 -0.979139
v 0.591330 1.475139 -1.029666
v 0.580337 1.558778 -1.004076
v 0.391638 1.526131 -0.991548
v 0.401681 1.449718 -1.014928
v 0.390540 1.418174 -0.974913
v -0.466303 1.415960 -0.941709
v -0.692445 1.400288 -0.937483
v -0.674551 1.264139 -0.979139
v -0.660729 1.310581 -1.029666
v -0.671722 1.394220 -1.004076
v -0.480995 1.411441 -0.991548
v -0.470952 1.335027 -1.014928
v -0.452039 1.307434 -0.974913
vt 0.582887 0.637720
vt 0.413053 0.757329
vt 0.413053 0.624216
vt 0.254779 0.642912
vt 0.363724 0.715745
vt 0.246512 0.721430
vt 0.209209 0.621433
vt 0.197468 0.732948
vt 0.250984 0.594073
vt 0.369269 0.664005
vt 0.413053 0.624216
vt 0.582887 0.743826
vt 0.582887 0.637720
vt 0.254779 0.642912
vt 0.363724 0.715745
vt 0.369269 0.664005
vt 0.197468 0.732948
vt 0.209209 0.621433
vt 0.250984 0.594073
vt 0.413053 0.757329
vt 0.246512 0.721430
vt 0.236430 0.771458
vt 0.582887 0.637720
vt 0.413053 0.757329
vt 0.413053 0.624216
vt 0.369269 0.664005
vt 0.246512 0.721430
vt 0.254779 0.642912
vt 0.197468 0.732948
vt 0.250984 0.594073
vt 0.363724 0.715745
vt 0.413053 0.624216
vt 0.582887 0.743826
vt 0.582887 0.637720
vt 0.246512 0.721430
vt 0.369269 0.664005
vt 0.254779 0.642912
vt 0.197468 0.732948
vt 0.209209 0.621433
vt 0.250984 0.594073
vt 0.413053 0.757329
vt 0.236430 0.771458
vt 0.582887 0.743826
vt 0.413053 0.624216
vt 0.582887 0.637720
vt 0.369269 0.664005
vt 0.246512 0.721430
vt 0.254779 0.642912
vt 0.209209 0.621433
vt 0.197468 0.732948
vt 0.250984 0.594073
vt 0.413053 0.757329
vt 0.363724 0.715745
vt 0.413053 0.624216
vt 0.582887 0.743826
vt 0.582887 0.637720
vt 0.246512 0.721430
vt 0.369269 0.664005
vt 0.254779 0.642912
vt 0.209209 0.621433
vt 0.197468 0.732948
vt 0.250984 0.594073
vt 0.413053 0.757329
vt 0.236430 0.771458
vt 0.582887 0.637720
vt 0.413053 0.757329
vt 0.413053 0.624216
vt 0.369269 0.664005
vt 0.246512 0.721430
vt 0.254779 0.642912
vt 0.209209 0.621433
vt 0.197468 0.732948
vt 0.250984 0.594073
vt 0.363724 0.715745
vt 0.413053 0.624216
vt 0.582887 0.743826
vt 0.582887 0.637720
vt 0.246512 0.721430
vt 0.369269 0.664005
vt 0.254779 0.642912
vt 0.209209 0.621433
vt 0.197468 0.732948
vt 0.250984 0.594073
vt 0.413053 0.757329
vt 0.236430 0.771458
vt 0.582887 0.743826
vt 0.413053 0.624216
vt 0.582887 0.637720
vt 0.369269 0.664005
vt 0.246512 0.721430
vt 0.254779 0.642912
vt 0.197468 0.732948
vt 0.250984 0.594073
vt 0.413053 0.757329
vt 0.363724 0.715745
vt 0.582887 0.637720
vt 0.413053 0.757329
vt 0.582887 0.743826
vt 0.246512 0.721430
vt 0.369269 0.664005
vt 0.254779 0.642912
vt 0.209209 0.621433
vt 0.197468 0.732948
vt 0.413053 0.624216
vt 0.250984 0.594073
vt 0.236430 0.771458
vt 0.582887 0.637720
vt 0.413053 0.757329
vt 0.413053 0.624216
vt 0.369269 0.664005
vt 0.246512 0.721430
vt 0.254779 0.642912
vt 0.197468 0.732948
vt 0.250984 0.594073
vt 0.363724 0.715745
vt 0.413053 0.624216
vt 0.582887 0.743826
vt 0.582887 0.637720
vt 0.246512 0.721430
vt 0.369269 0.664005
vt 0.254779 0.642912
vt 0.197468 0.732948
vt 0.209209 0.621433
vt 0.250984 0.594073
vt 0.413053 0.757329
vt 0.236430 0.771458
vt 0.582887 0.743826
vt 0.413053 0.624216
vt 0.582887 0.637720
vt 0.369269 0.664005
vt 0.246512 0.721430
vt 0.254779 0.642912
vt 0.197468 0.732948
vt 0.250984 0.594073
vt 0.413053 0.757329
vt 0.363724 0.715745
vt 0.413053 0.624216
vt 0.582887 0.743826
vt 0.582887 0.637720
vt 0.246512 0.721430
vt 0.369269 0.664005
vt 0.254779 0.642912
vt 0.209209 0.621433
vt 0.197468 0.732948
vt 0.250984 0.594073
vt 0.413053 0.757329
vt 0.236430 0.771458
vt 0.582887 0.743826
vt 0.413053 0.624216
vt 0.582887 0.637720
vt 0.254779 0.642912
vt 0.363724 0.715745
vt 0.246512 0.721430
vt 0.197468 0.732948
vt 0.250984 0.594073
vt 0.413053 0.757329
vt 0.369269 0.664005
vt 0.413053 0.624216
vt 0.582887 0.743826
vt 0.582887 0.637720
vt 0.246512 0.721430
vt 0.369269 0.664005
vt 0.254779 0.642912
vt 0.197468 0.732948
vt 0.209209 0.621433
vt 0.250984 0.594073
vt 0.413053 0.757329
vt 0.236430 0.771458
vt 0.363724 0.715745
vt 0.582887 0.743826
vt 0.236430 0.771458
vt 0.582887 0.743826
vt 0.209209 0.621433
vt 0.236430 0.771458
vt 0.363724 0.715745
vt 0.236430 0.771458
vt 0.363724 0.715745
vt 0.582887 0.743826
vt 0.236430 0.771458
vt 0.363724 0.715745
vt 0.209209 0.621433
vt 0.236430 0.771458
vt 0.363724 0.715745
vt 0.582887 0.743826
vt 0.209209 0.621433
vt 0.236430 0.771458
vt 0.363724 0.715745
vt 0.209209 0.621433
vt 0.236430 0.771458
vt 0.363724 0.715745
vt 0.209209 0.621433
vt 0.236430 0.771458
vn 0.1149 -0.8744 0.4714
vn -0.1882 0.8623 -0.4701
vn -0.9788 0.1446 -0.1448
vn -0.1511 0.7648 0.6264
vn -0.1564 0.7443 0.6493
vn -0.1577 0.7390 0.6550
vn -0.0382 -0.0944 -0.9948
vn -0.0421 -0.1251 -0.9913
vn -0.0371 -0.0857 -0.9956
vn 0.9082 0.3926 -0.1448
vn -0.0410 0.8817 -0.4701
vn -0.0413 0.7594 0.6493
vn -0.0517 0.7778 0.6264
vn -0.0387 0.7547 0.6550
vn 0.0613 -0.0813 -0.9948
vn 0.0730 -0.1100 -0.9913
vn 0.0759 -0.1172 -0.9902
vn 0.1247 -0.9488 -0.2903
vn -0.1980 0.9365 0.2895
vn -0.9818 0.1675 0.0892
vn -0.0637 0.0997 0.9930
vn -0.0676 0.0689 0.9953
vn -0.0686 0.0611 0.9958
vn -0.1332 0.6288 -0.7661
vn -0.1379 0.6043 -0.7847
vn -0.1319 0.6356 -0.7607
vn 0.9052 0.4155 0.0892
vn -0.0507 0.9558 0.2895
vn 0.0475 0.0840 0.9953
vn 0.0358 0.1128 0.9930
vn 0.0504 0.0767 0.9958
vn -0.0338 0.6419 -0.7661
vn -0.0229 0.6194 -0.7847
vn -0.0201 0.6136 -0.7893
vn 0.0614 -0.4674 -0.8819
vn -0.1349 0.4564 0.8795
vn -0.9624 0.0196 0.2709
vn 0.0319 -0.6275 0.7779
vn 0.0271 -0.6513 0.7583
vn 0.0258 -0.6572 0.7533
vn -0.1794 0.9798 -0.0886
vn -0.1867 0.9752 -0.1185
vn -0.1772 0.9809 -0.0801
vn 0.9247 0.2676 0.2709
vn 0.0124 0.4758 0.8795
vn 0.1421 -0.6362 0.7583
vn 0.1313 -0.6145 0.7779
vn 0.1448 -0.6416 0.7533
vn -0.0799 0.9929 -0.0886
vn -0.0716 0.9904 -0.1185
vn -0.0695 0.9896 -0.1261
vn -0.0378 0.2878 -0.9569
vn -0.0359 -0.2967 0.9543
vn -0.9319 -0.2124 0.2940
vn 0.0797 -0.9910 0.1072
vn 0.0722 -0.9944 0.0771
vn 0.0703 -0.9951 0.0695
vn -0.1495 0.7530 0.6408
vn -0.1598 0.7705 0.6171
vn -0.1466 0.7479 0.6474
vn 0.9551 0.0356 0.2940
vn 0.1113 -0.2773 0.9543
vn 0.1872 -0.9793 0.0771
vn 0.1791 -0.9780 0.1072
vn 0.1893 -0.9795 0.0695
vn -0.0501 0.7661 0.6408
vn -0.0447 0.7856 0.6171
vn -0.0434 0.7904 0.6110
vn -0.1149 0.8744 -0.4714
vn 0.0410 -0.8817 0.4701
vn -0.9082 -0.3926 0.1448
vn 0.0517 -0.7778 -0.6264
vn 0.0413 -0.7594 -0.6493
vn 0.0387 -0.7547 -0.6550
vn -0.0613 0.0813 0.9948
vn -0.0730 0.1100 0.9913
vn -0.0579 0.0732 0.9956
vn 0.9788 -0.1446 0.1448
vn 0.1882 -0.8623 0.4701
vn 0.1564 -0.7443 -0.6493
vn 0.1511 -0.7648 -0.6264
vn 0.1577 -0.7390 -0.6550
vn 0.0382 0.0944 0.9948
vn 0.0421 0.1251 0.9913
vn 0.0431 0.1328 0.9902
vn -0.1247 0.9488 0.2903
vn 0.0507 -0.9558 -0.2895
vn -0.9052 -0.4155 -0.0892
vn -0.0358 -0.1128 -0.9930
vn -0.0475 -0.0840 -0.9953
vn -0.0504 -0.0767 -0.9958
vn 0.0338 -0.6419 0.7661
vn 0.0229 -0.6194 0.7847
vn 0.0369 -0.6481 0.7607
vn 0.9818 -0.1675 -0.0892
vn 0.1980 -0.9365 -0.2895
vn 0.0676 -0.0689 -0.9953
vn 0.0637 -0.0997 -0.9930
vn 0.0686 -0.0611 -0.9958
vn 0.1332 -0.6288 0.7661
vn 0.1379 -0.6043 0.7847
vn 0.1391 -0.5980 0.7893
vn -0.0614 0.4674 0.8819
vn -0.0124 -0.4758 -0.8795
vn -0.9247 -0.2676 -0.2709
vn -0.1313 0.6145 -0.7779
vn -0.1421 0.6362 -0.7583
vn -0.1448 0.6416 -0.7533
vn 0.0799 -0.9929 0.0886
vn 0.0716 -0.9904 0.1185
vn 0.0822 -0.9934 0.0801
vn 0.9624 -0.0196 -0.2709
vn 0.1349 -0.4564 -0.8795
vn -0.0271 0.6513 -0.7583
vn -0.0319 0.6275 -0.7779
vn -0.0258 0.6572 -0.7533
vn 0.1794 -0.9798 0.0886
vn 0.1867 -0.9752 0.1185
vn 0.1885 -0.9739 0.1261
vn 0.0378 -0.2878 0.9569
vn -0.1113 0.2773 -0.9543
vn -0.9551 -0.0356 -0.2940
vn -0.1791 0.9780 -0.1072
vn -0.1872 0.9793 -0.0771
vn -0.1893 0.9795 -0.0695
vn 0.0501 -0.7661 -0.6408
vn 0.0447 -0.7856 -0.6171
vn 0.0516 -0.7604 -0.6474
vn 0.9319 0.2124 -0.2940
vn 0.0359 0.2967 -0.9543
vn -0.0722 0.9944 -0.0771
vn -0.0797 0.9910 -0.1072
vn -0.0703 0.9951 -0.0695
vn 0.1495 -0.7530 -0.6408
vn 0.1598 -0.7705 -0.6171
vn 0.1624 -0.7748 -0.6110
vn -0.1496 0.7704 0.6198
vn -0.0431 -0.1328 -0.9902
vn -0.0546 0.7829 0.6198
vn 0.0579 -0.0732 -0.9956
vn -0.0626 0.1084 0.9921
vn -0.1391 0.5980 -0.7893
vn 0.0324 0.1209 0.9921
vn -0.0369 0.6481 -0.7607
vn 0.0333 -0.6207 0.7833
vn -0.1885 0.9739 -0.1261
vn 0.1283 -0.6082 0.7833
vn -0.0822 0.9934 -0.0801
vn 0.0818 -0.9899 0.1157
vn -0.1624 0.7748 0.6110
vn 0.1768 -0.9774 0.1157
vn -0.0516 0.7604 0.6474
vn 0.0546 -0.7829 -0.6198
vn -0.0759 0.1172 0.9902
vn 0.1496 -0.7704 -0.6198
vn 0.0371 0.0857 0.9956
vn -0.0324 -0.1209 -0.9921
vn 0.0201 -0.6136 0.7893
vn 0.0626 -0.1084 -0.9921
vn 0.1319 -0.6356 0.7607
vn -0.1283 0.6082 -0.7833
vn 0.0695 -0.9896 0.1261
vn -0.0333 0.6207 -0.7833
vn 0.1772 -0.9809 0.0801
vn -0.1768 0.9774 -0.1157
vn 0.0434 -0.7904 -0.6110
vn -0.0818 0.9899 -0.1157
vn 0.1466 -0.7479 -0.6474
s 1
f 1/1/1 3/2/1 2/3/1
f 6/4/2 4/5/2 7/6/2
f 1/7/3 7/6/3 8/8/3
f 2/3/4 6/4/5 1/9/6
f 3/2/7 7/6/8 4/5/9
f 2/3/10 4/5/10 5/10/10
f 10/11/1 16/12/1 9/13/1
f 14/14/11 12/15/11 13/16/11
f 16/17/10 14/14/10 9/18/10
f 14/14/12 10/11/13 9/19/14
f 11/20/15 15/21/16 16/22/17
f 13/16/3 11/20/3 10/11/3
f 17/23/18 19/24/18 18/25/18
f 21/26/19 23/27/19 22/28/19
f 24/29/20 22/28/20 23/27/20
f 18/25/21 22/28/22 17/30/23
f 19/24/24 23/27/25 20/31/26
f 19/24/27 21/26/27 18/25/27
f 26/32/18 32/33/18 25/34/18
f 31/35/28 29/36/28 30/37/28
f 32/38/27 30/37/27 25/39/27
f 30/37/29 26/32/30 25/40/31
f 27/41/32 31/35/33 32/42/34
f 29/36/20 27/41/20 26/32/20
f 40/43/35 34/44/35 33/45/35
f 37/46/36 39/47/36 38/48/36
f 33/49/37 39/47/37 40/50/37
f 34/44/38 38/48/39 33/51/40
f 35/52/41 39/47/42 36/53/43
f 35/52/44 37/46/44 34/44/44
f 42/54/35 48/55/35 41/56/35
f 47/57/45 45/58/45 46/59/45
f 47/57/44 41/60/44 48/61/44
f 46/59/46 42/54/47 41/62/48
f 43/63/49 47/57/50 48/64/51
f 45/58/37 43/63/37 42/54/37
f 49/65/52 51/66/52 50/67/52
f 53/68/53 55/69/53 54/70/53
f 49/71/54 55/69/54 56/72/54
f 50/67/55 54/70/56 49/73/57
f 51/66/58 55/69/59 52/74/60
f 51/66/61 53/68/61 50/67/61
f 58/75/52 64/76/52 57/77/52
f 63/78/62 61/79/62 62/80/62
f 63/78/61 57/81/61 64/82/61
f 62/80/63 58/75/64 57/83/65
f 59/84/66 63/78/67 64/85/68
f 61/79/54 59/84/54 58/75/54
f 72/86/69 66/87/69 65/88/69
f 69/89/70 71/90/70 70/91/70
f 72/92/71 70/91/71 71/90/71
f 66/87/72 70/91/73 65/93/74
f 67/94/75 71/90/76 68/95/77
f 67/94/78 69/89/78 66/87/78
f 73/96/69 75/97/69 80/98/69
f 79/99/79 77/100/79 78/101/79
f 79/99/78 73/102/78 80/103/78
f 78/101/80 74/104/81 73/105/82
f 75/97/83 79/99/84 80/106/85
f 77/100/71 75/97/71 74/104/71
f 81/107/86 83/108/86 82/109/86
f 85/110/87 87/111/87 86/112/87
f 88/113/88 86/112/88 87/111/88
f 82/109/89 86/112/90 81/114/91
f 83/108/92 87/111/93 84/115/94
f 83/108/95 85/110/95 82/109/95
f 90/116/86 96/117/86 89/118/86
f 95/119/96 93/120/96 94/121/96
f 96/122/95 94/121/95 89/123/95
f 94/121/97 90/116/98 89/124/99
f 91/125/100 95/119/101 96/126/102
f 93/120/88 91/125/88 90/116/88
f 104/127/103 98/128/103 97/129/103
f 101/130/104 103/131/104 102/132/104
f 104/133/105 102/132/105 103/131/105
f 98/128/106 102/132/107 97/134/108
f 99/135/109 103/131/110 100/136/111
f 99/135/112 101/130/112 98/128/112
f 106/137/103 112/138/103 105/139/103
f 111/140/113 109/141/113 110/142/113
f 111/140/112 105/143/112 112/144/112
f 110/142/114 106/137/115 105/145/116
f 107/146/117 111/140/118 112/147/119
f 109/141/105 107/146/105 106/137/105
f 120/148/120 114/149/120 113/150/120
f 118/151/121 116/152/121 119/153/121
f 120/154/122 118/151/122 119/153/122
f 114/149/123 118/151/124 113/155/125
f 115/156/126 119/153/127 116/152/128
f 114/149/129 116/152/129 117/157/129
f 122/158/120 128/159/120 121/160/120
f 127/161/130 125/162/130 126/163/130
f 128/164/129 126/163/129 121/165/129
f 126/163/131 122/158/132 121/166/133
f 123/167/134 127/161/135 128/168/136
f 122/158/122 124/169/122 123/167/122
f 1/1/1 8/170/1 3/2/1
f 6/4/2 5/10/2 4/5/2
f 1/7/3 6/4/3 7/6/3
f 2/3/4 5/10/137 6/4/5
f 3/2/7 8/171/138 7/6/8
f 2/3/10 3/2/10 4/5/10
f 10/11/1 11/20/1 16/12/1
f 14/14/11 15/21/11 12/15/11
f 16/17/10 15/21/10 14/14/10
f 14/14/12 13/16/139 10/11/13
f 11/20/15 12/15/140 15/21/16
f 13/16/3 12/15/3 11/20/3
f 17/23/18 24/172/18 19/24/18
f 21/26/19 20/31/19 23/27/19
f 24/29/20 17/173/20 22/28/20
f 18/25/21 21/26/141 22/28/22
f 19/24/24 24/174/142 23/27/25
f 19/24/27 20/31/27 21/26/27
f 26/32/18 27/41/18 32/33/18
f 31/35/28 28/175/28 29/36/28
f 32/38/27 31/35/27 30/37/27
f 30/37/29 29/36/143 26/32/30
f 27/41/32 28/175/144 31/35/33
f 29/36/20 28/175/20 27/41/20
f 40/43/35 35/52/35 34/44/35
f 37/46/36 36/53/36 39/47/36
f 33/49/37 38/48/37 39/47/37
f 34/44/38 37/46/145 38/48/39
f 35/52/41 40/176/146 39/47/42
f 35/52/44 36/53/44 37/46/44
f 42/54/35 43/63/35 48/55/35
f 47/57/45 44/177/45 45/58/45
f 47/57/44 46/59/44 41/60/44
f 46/59/46 45/58/147 42/54/47
f 43/63/49 44/177/148 47/57/50
f 45/58/37 44/177/37 43/63/37
f 49/65/52 56/178/52 51/66/52
f 53/68/53 52/74/53 55/69/53
f 49/71/54 54/70/54 55/69/54
f 50/67/55 53/68/149 54/70/56
f 51/66/58 56/179/150 55/69/59
f 51/66/61 52/74/61 53/68/61
f 58/75/52 59/84/52 64/76/52
f 63/78/62 60/180/62 61/79/62
f 63/78/61 62/80/61 57/81/61
f 62/80/63 61/79/151 58/75/64
f 59/84/66 60/180/152 63/78/67
f 61/79/54 60/180/54 59/84/54
f 72/86/69 67/94/69 66/87/69
f 69/89/70 68/95/70 71/90/70
f 72/92/71 65/181/71 70/91/71
f 66/87/72 69/89/153 70/91/73
f 67/94/75 72/182/154 71/90/76
f 67/94/78 68/95/78 69/89/78
f 73/96/69 74/104/69 75/97/69
f 79/99/79 76/183/79 77/100/79
f 79/99/78 78/101/78 73/102/78
f 78/101/80 77/100/155 74/104/81
f 75/97/83 76/183/156 79/99/84
f 77/100/71 76/183/71 75/97/71
f 81/107/86 88/184/86 83/108/86
f 85/110/87 84/115/87 87/111/87
f 88/113/88 81/185/88 86/112/88
f 82/109/89 85/110/157 86/112/90
f 83/108/92 88/186/158 87/111/93
f 83/108/95 84/115/95 85/110/95
f 90/116/86 91/125/86 96/117/86
f 95/119/96 92/187/96 93/120/96
f 96/122/95 95/119/95 94/121/95
f 94/121/97 93/120/159 90/116/98
f 91/125/100 92/187/160 95/119/101
f 93/120/88 92/187/88 91/125/88
f 104/127/103 99/135/103 98/128/103
f 101/130/104 100/136/104 103/131/104
f 104/133/105 97/188/105 102/132/105
f 98/128/106 101/130/161 102/132/107
f 99/135/109 104/189/162 103/131/110
f 99/135/112 100/136/112 101/130/112
f 106/137/103 107/146/103 112/138/103
f 111/140/113 108/190/113 109/141/113
f 111/140/112 110/142/112 105/143/112
f 110/142/114 109/141/163 106/137/115
f 107/146/117 108/190/164 111/140/118
f 109/141/105 108/190/105 107/146/105
f 120/148/120 115/156/120 114/149/120
f 118/151/121 117/157/121 116/152/121
f 120/154/122 113/191/122 118/151/122
f 114/149/123 117/157/165 118/151/124
f 115/156/126 120/192/166 119/153/127
f 114/149/129 115/156/129 116/152/129
f 122/158/120 123/167/120 128/159/120
f 127/161/130 124/169/130 125/162/130
f 128/164/129 127/161/129 126/163/129
f 126/163/131 125/162/167 122/158/132
f 123/167/134 124/169/168 127/161/135
f 122/158/122 125/162/122 124/169/122
