# Blender v2.90.1 OBJ File: 'drumsetV2Export.blend'
# www.blender.org
o drumsetV4_DrumTop002_Cylinder.032
v 0.791884 2.784839 0.242493
v 0.743741 2.798920 0.240031
v 0.839563 2.770893 0.249864
v 0.886321 2.757218 0.262065
v 0.743741 2.798920 0.751779
v 0.647918 2.826946 0.249864
v 0.555778 2.853895 0.278985
v 0.470861 2.878732 0.326276
v 0.396431 2.900501 0.389918
v 0.335348 2.918367 0.467467
v 0.289959 2.931642 0.555941
v 0.262008 2.939817 0.651942
v 0.252571 2.942577 0.751779
v 0.262008 2.939817 0.851616
v 0.289959 2.931642 0.947616
v 0.335348 2.918367 1.036091
v 0.396431 2.900501 1.113639
v 0.470861 2.878732 1.177282
v 0.555778 2.853895 1.224572
v 0.647918 2.826946 1.253694
v 0.743741 2.798920 1.263527
v 0.839563 2.770893 1.253694
v 0.931704 2.743944 1.224572
v 1.016620 2.719108 1.177282
v 1.091051 2.697338 1.113639
v 1.152134 2.679472 1.036091
v 1.197523 2.666197 0.947616
v 1.225474 2.658022 0.851616
v 1.234911 2.655262 0.751779
v 1.225474 2.658022 0.651942
v 1.197523 2.666197 0.555941
v 1.152134 2.679472 0.467467
v 1.091051 2.697338 0.389918
v 1.016620 2.719108 0.326276
v 0.931704 2.743944 0.278985
v 0.975278 2.731200 0.300456
v 1.055337 2.707784 0.356191
v 1.123422 2.687870 0.427128
v 1.176916 2.672224 0.510542
v 1.213763 2.661447 0.603226
v 1.232548 2.655953 0.701618
v 1.232548 2.655953 0.801939
v 1.213763 2.661447 0.900332
v 1.176916 2.672224 0.993016
v 1.123422 2.687870 1.076429
v 1.055337 2.707784 1.147367
v 0.975278 2.731200 1.203102
v 0.886321 2.757218 1.241493
v 0.791884 2.784839 1.261065
v 0.695598 2.813000 1.261065
v 0.601161 2.840621 1.241493
v 0.512204 2.866640 1.203102
v 0.432145 2.890055 1.147367
v 0.364060 2.909969 1.076429
v 0.310566 2.925615 0.993016
v 0.273718 2.936392 0.900332
v 0.254934 2.941886 0.801939
v 0.254934 2.941886 0.701618
v 0.273718 2.936392 0.603226
v 0.310566 2.925615 0.510542
v 0.364060 2.909969 0.427128
v 0.432144 2.890055 0.356191
v 0.512204 2.866640 0.300456
v 0.601161 2.840621 0.262065
v 0.695598 2.813001 0.242493
vt 0.844222 0.380157
vt 0.825909 0.381961
vt 0.807596 0.196023
vt 0.861832 0.374816
vt 0.879442 0.369474
vt 0.895671 0.360799
vt 0.807596 0.383765
vt 0.789282 0.381961
vt 0.770969 0.380157
vt 0.753359 0.374816
vt 0.735750 0.369474
vt 0.719521 0.360799
vt 0.703292 0.352125
vt 0.689067 0.340451
vt 0.674842 0.328776
vt 0.663168 0.314551
vt 0.651494 0.300327
vt 0.642819 0.284097
vt 0.634144 0.267868
vt 0.628803 0.250259
vt 0.623461 0.232649
vt 0.621657 0.214336
vt 0.619853 0.196023
vt 0.621657 0.177709
vt 0.623461 0.159396
vt 0.628803 0.141786
vt 0.634144 0.124177
vt 0.642819 0.107948
vt 0.651494 0.091719
vt 0.663168 0.077494
vt 0.674842 0.063269
vt 0.689067 0.051595
vt 0.703292 0.039921
vt 0.719521 0.031246
vt 0.735750 0.022571
vt 0.753359 0.017230
vt 0.770969 0.011888
vt 0.789282 0.010084
vt 0.807596 0.008280
vt 0.825909 0.010084
vt 0.844222 0.011888
vt 0.861832 0.017230
vt 0.879442 0.022571
vt 0.895671 0.031246
vt 0.911900 0.039921
vt 0.926125 0.051595
vt 0.940350 0.063269
vt 0.952024 0.077494
vt 0.963698 0.091719
vt 0.972372 0.107948
vt 0.981047 0.124177
vt 0.986389 0.141786
vt 0.991731 0.159396
vt 0.993534 0.177709
vt 0.995338 0.196023
vt 0.993534 0.214336
vt 0.991731 0.232649
vt 0.986389 0.250259
vt 0.981047 0.267868
vt 0.972372 0.284098
vt 0.963698 0.300327
vt 0.952024 0.314552
vt 0.940350 0.328776
vt 0.926125 0.340450
vt 0.911900 0.352125
vn 0.2807 0.9598 0.0000
s 1
f 1/1/1 2/2/1 5/3/1 3/4/1
f 4/5/1 3/4/1 5/3/1 35/6/1
f 65/7/1 6/8/1 5/3/1 2/2/1
f 64/9/1 7/10/1 5/3/1 6/8/1
f 63/11/1 8/12/1 5/3/1 7/10/1
f 62/13/1 9/14/1 5/3/1 8/12/1
f 61/15/1 10/16/1 5/3/1 9/14/1
f 60/17/1 11/18/1 5/3/1 10/16/1
f 59/19/1 12/20/1 5/3/1 11/18/1
f 58/21/1 13/22/1 5/3/1 12/20/1
f 57/23/1 14/24/1 5/3/1 13/22/1
f 56/25/1 15/26/1 5/3/1 14/24/1
f 55/27/1 16/28/1 5/3/1 15/26/1
f 54/29/1 17/30/1 5/3/1 16/28/1
f 53/31/1 18/32/1 5/3/1 17/30/1
f 52/33/1 19/34/1 5/3/1 18/32/1
f 51/35/1 20/36/1 5/3/1 19/34/1
f 50/37/1 21/38/1 5/3/1 20/36/1
f 49/39/1 22/40/1 5/3/1 21/38/1
f 48/41/1 23/42/1 5/3/1 22/40/1
f 47/43/1 24/44/1 5/3/1 23/42/1
f 46/45/1 25/46/1 5/3/1 24/44/1
f 45/47/1 26/48/1 5/3/1 25/46/1
f 44/49/1 27/50/1 5/3/1 26/48/1
f 43/51/1 28/52/1 5/3/1 27/50/1
f 42/53/1 29/54/1 5/3/1 28/52/1
f 41/55/1 30/56/1 5/3/1 29/54/1
f 40/57/1 31/58/1 5/3/1 30/56/1
f 39/59/1 32/60/1 5/3/1 31/58/1
f 38/61/1 33/62/1 5/3/1 32/60/1
f 37/63/1 34/64/1 5/3/1 33/62/1
f 36/65/1 35/6/1 5/3/1 34/64/1
