# Blender v2.93.5 OBJ File: 'drumsetV2Export.blend'
# www.blender.org
mtllib drumsetV4_DrumTop001.mtl
o drumsetV4_DrumTop001_Cylinder.031
v 1.771954 1.896950 0.910097
v 1.705912 1.896950 0.900303
v 1.836716 1.896950 0.926321
v 1.899578 1.896950 0.948811
v 1.639229 1.896950 1.577348
v 1.572546 1.896950 0.900303
v 1.441743 1.896950 0.926321
v 1.318528 1.896950 0.977358
v 1.207639 1.896950 1.051453
v 1.113334 1.896950 1.145757
v 1.039240 1.896950 1.256647
v 0.988203 1.896950 1.379861
v 0.962185 1.896950 1.510664
v 0.962185 1.896950 1.644031
v 0.988203 1.896950 1.774834
v 1.039240 1.896950 1.898049
v 1.113334 1.896950 2.008938
v 1.207639 1.896950 2.103242
v 1.318528 1.896950 2.177337
v 1.441743 1.896950 2.228374
v 1.572546 1.896950 2.254392
v 1.705912 1.896950 2.254392
v 1.836716 1.896950 2.228374
v 1.959930 1.896950 2.177337
v 2.070820 1.896950 2.103242
v 2.165124 1.896950 2.008938
v 2.239218 1.896950 1.898048
v 2.290256 1.896950 1.774834
v 2.316274 1.896950 1.644031
v 2.316274 1.896950 1.510664
v 2.290256 1.896950 1.379861
v 2.239218 1.896950 1.256647
v 2.165124 1.896950 1.145757
v 2.070820 1.896950 1.051453
v 1.959930 1.896950 0.977358
v 2.017197 1.896950 1.011680
v 2.120290 1.896950 1.096286
v 2.204897 1.896950 1.199380
v 2.267766 1.896950 1.316999
v 2.306480 1.896950 1.444623
v 2.319552 1.896950 1.577348
v 2.306480 1.896950 1.710072
v 2.267766 1.896950 1.837696
v 2.204897 1.896950 1.955315
v 2.120290 1.896950 2.058408
v 2.017197 1.896950 2.143015
v 1.899578 1.896950 2.205884
v 1.771954 1.896950 2.244598
v 1.639229 1.896950 2.257671
v 1.506505 1.896950 2.244598
v 1.378881 1.896950 2.205884
v 1.261262 1.896950 2.143015
v 1.158168 1.896950 2.058409
v 1.073561 1.896950 1.955315
v 1.010693 1.896950 1.837696
v 0.971978 1.896950 1.710072
v 0.958906 1.896950 1.577348
v 0.971978 1.896950 1.444623
v 1.010693 1.896950 1.316999
v 1.073561 1.896950 1.199380
v 1.158168 1.896950 1.096287
v 1.261262 1.896950 1.011680
v 1.378881 1.896950 0.948811
v 1.506505 1.896950 0.910097
v 1.639229 1.896950 0.897024
vt 0.749846 0.983803
vt 0.691055 0.688240
vt 0.778112 0.975229
vt 0.806378 0.966655
vt 0.832428 0.952731
vt 0.691054 0.989594
vt 0.720450 0.986699
vt 0.632263 0.983803
vt 0.661659 0.986699
vt 0.575731 0.966655
vt 0.603997 0.975229
vt 0.523631 0.938807
vt 0.549681 0.952731
vt 0.477964 0.901329
vt 0.500798 0.920068
vt 0.440487 0.855663
vt 0.459226 0.878496
vt 0.412639 0.803563
vt 0.426563 0.829613
vt 0.395490 0.747031
vt 0.404065 0.775297
vt 0.389700 0.688239
vt 0.392595 0.717635
vt 0.395490 0.629448
vt 0.392595 0.658844
vt 0.412639 0.572916
vt 0.404065 0.601182
vt 0.440487 0.520815
vt 0.426563 0.546866
vt 0.477965 0.475149
vt 0.459226 0.497982
vt 0.523631 0.437672
vt 0.500798 0.456411
vt 0.575731 0.409824
vt 0.549681 0.423748
vt 0.632263 0.392675
vt 0.603997 0.401249
vt 0.691054 0.386885
vt 0.661659 0.389780
vt 0.749846 0.392675
vt 0.720450 0.389780
vt 0.806378 0.409824
vt 0.778112 0.401249
vt 0.858478 0.437672
vt 0.832428 0.423748
vt 0.904144 0.475149
vt 0.881311 0.456411
vt 0.941622 0.520816
vt 0.922883 0.497983
vt 0.969470 0.572916
vt 0.955546 0.546866
vt 0.986619 0.629448
vt 0.978044 0.601182
vt 0.992409 0.688239
vt 0.989514 0.658844
vt 0.986619 0.747031
vt 0.989514 0.717635
vt 0.969470 0.803563
vt 0.978044 0.775297
vt 0.941622 0.855663
vt 0.955546 0.829613
vt 0.904145 0.901329
vt 0.922883 0.878496
vt 0.858478 0.938807
vt 0.881311 0.920068
vn 0.0000 1.0000 0.0000
usemtl DrumTop
s 1
f 1/1/1 5/2/1 3/3/1
f 4/4/1 5/2/1 35/5/1
f 65/6/1 5/2/1 2/7/1
f 64/8/1 5/2/1 6/9/1
f 63/10/1 5/2/1 7/11/1
f 62/12/1 5/2/1 8/13/1
f 61/14/1 5/2/1 9/15/1
f 60/16/1 5/2/1 10/17/1
f 59/18/1 5/2/1 11/19/1
f 58/20/1 5/2/1 12/21/1
f 57/22/1 5/2/1 13/23/1
f 56/24/1 5/2/1 14/25/1
f 55/26/1 5/2/1 15/27/1
f 54/28/1 5/2/1 16/29/1
f 53/30/1 5/2/1 17/31/1
f 52/32/1 5/2/1 18/33/1
f 51/34/1 5/2/1 19/35/1
f 50/36/1 5/2/1 20/37/1
f 49/38/1 5/2/1 21/39/1
f 48/40/1 5/2/1 22/41/1
f 47/42/1 5/2/1 23/43/1
f 46/44/1 5/2/1 24/45/1
f 45/46/1 5/2/1 25/47/1
f 44/48/1 5/2/1 26/49/1
f 43/50/1 5/2/1 27/51/1
f 42/52/1 5/2/1 28/53/1
f 41/54/1 5/2/1 29/55/1
f 40/56/1 5/2/1 30/57/1
f 39/58/1 5/2/1 31/59/1
f 38/60/1 5/2/1 32/61/1
f 37/62/1 5/2/1 33/63/1
f 36/64/1 5/2/1 34/65/1
f 1/1/1 2/7/1 5/2/1
f 4/4/1 3/3/1 5/2/1
f 65/6/1 6/9/1 5/2/1
f 64/8/1 7/11/1 5/2/1
f 63/10/1 8/13/1 5/2/1
f 62/12/1 9/15/1 5/2/1
f 61/14/1 10/17/1 5/2/1
f 60/16/1 11/19/1 5/2/1
f 59/18/1 12/21/1 5/2/1
f 58/20/1 13/23/1 5/2/1
f 57/22/1 14/25/1 5/2/1
f 56/24/1 15/27/1 5/2/1
f 55/26/1 16/29/1 5/2/1
f 54/28/1 17/31/1 5/2/1
f 53/30/1 18/33/1 5/2/1
f 52/32/1 19/35/1 5/2/1
f 51/34/1 20/37/1 5/2/1
f 50/36/1 21/39/1 5/2/1
f 49/38/1 22/41/1 5/2/1
f 48/40/1 23/43/1 5/2/1
f 47/42/1 24/45/1 5/2/1
f 46/44/1 25/47/1 5/2/1
f 45/46/1 26/49/1 5/2/1
f 44/48/1 27/51/1 5/2/1
f 43/50/1 28/53/1 5/2/1
f 42/52/1 29/55/1 5/2/1
f 41/54/1 30/57/1 5/2/1
f 40/56/1 31/59/1 5/2/1
f 39/58/1 32/61/1 5/2/1
f 38/60/1 33/63/1 5/2/1
f 37/62/1 34/65/1 5/2/1
f 36/64/1 35/5/1 5/2/1
