# Blender v2.90.1 OBJ File: 'drumsetV2Export.blend'
# www.blender.org
o drumsetV4_BigDrumFront_Cylinder.014
v -0.684097 0.853880 -0.922398
v -0.708006 1.035792 -0.940469
v -0.661107 0.678959 -0.868880
v -0.639919 0.517751 -0.781971
v -0.621348 0.376450 -0.665012
v -0.606107 0.260488 -0.522496
v -0.594782 0.174321 -0.359902
v -0.587808 0.121259 -0.183476
v -0.585453 0.103342 0.000000
v -0.587808 0.121259 0.183476
v -0.594782 0.174321 0.359902
v -0.606107 0.260488 0.522496
v -0.621348 0.376450 0.665012
v -0.639919 0.517751 0.781971
v -0.661107 0.678959 0.868880
v -0.684097 0.853880 0.922398
v -0.708006 1.035792 0.940469
v -0.731914 1.217704 0.922398
v -0.754904 1.392625 0.868880
v -0.776092 1.553833 0.781971
v -0.794663 1.695133 0.665012
v -0.809904 1.811095 0.522496
v -0.821229 1.897263 0.359902
v -0.828203 1.950324 0.183476
v -0.830558 1.968241 -0.000000
v -0.828203 1.950324 -0.183476
v -0.821229 1.897263 -0.359902
v -0.809904 1.811095 -0.522496
v -0.794663 1.695133 -0.665012
v -0.776092 1.553833 -0.781971
v -0.754904 1.392625 -0.868880
v -0.731914 1.217704 -0.922398
v -0.695993 0.944396 -0.935936
v -0.672431 0.765117 -0.899969
v -0.650235 0.596240 -0.829416
v -0.630260 0.444254 -0.726989
v -0.613272 0.315001 -0.596625
v -0.599925 0.213448 -0.443332
v -0.590731 0.143497 -0.273003
v -0.586044 0.107836 -0.092182
v -0.586044 0.107836 0.092182
v -0.590731 0.143497 0.273003
v -0.599925 0.213448 0.443332
v -0.613272 0.315001 0.596625
v -0.630260 0.444254 0.726989
v -0.650235 0.596240 0.829416
v -0.672431 0.765117 0.899969
v -0.695993 0.944396 0.935936
v -0.720018 1.127187 0.935936
v -0.743581 1.306466 0.899969
v -0.765776 1.475344 0.829416
v -0.785752 1.627329 0.726989
v -0.802739 1.756582 0.596625
v -0.816087 1.858135 0.443332
v -0.825280 1.928087 0.273003
v -0.829967 1.963748 0.092182
v -0.829967 1.963748 -0.092182
v -0.825280 1.928087 -0.273003
v -0.816087 1.858136 -0.443332
v -0.802740 1.756582 -0.596625
v -0.785752 1.627329 -0.726989
v -0.765776 1.475344 -0.829416
v -0.743581 1.306466 -0.899969
v -0.720018 1.127187 -0.935936
v -0.708006 1.035792 0.000000
vt 0.641742 0.032740
vt 0.500000 0.500000
vt 0.594802 0.023403
vt 0.730177 0.069371
vt 0.685960 0.051055
vt 0.809765 0.122550
vt 0.769971 0.095960
vt 0.877450 0.190235
vt 0.843608 0.156392
vt 0.930630 0.269824
vt 0.904040 0.230030
vt 0.967260 0.358258
vt 0.948945 0.314041
vt 0.985934 0.452139
vt 0.976597 0.405199
vt 0.985934 0.547861
vt 0.985935 0.500000
vt 0.967260 0.641742
vt 0.976597 0.594801
vt 0.930630 0.730176
vt 0.948945 0.685959
vt 0.877450 0.809765
vt 0.904040 0.769971
vt 0.809765 0.877450
vt 0.843607 0.843608
vt 0.730176 0.930630
vt 0.769971 0.904040
vt 0.641742 0.967260
vt 0.685959 0.948945
vt 0.547861 0.985934
vt 0.594801 0.976597
vt 0.452139 0.985934
vt 0.500000 0.985934
vt 0.358258 0.967260
vt 0.405199 0.976597
vt 0.269823 0.930629
vt 0.314041 0.948945
vt 0.190235 0.877450
vt 0.230029 0.904040
vt 0.122550 0.809765
vt 0.156393 0.843608
vt 0.069370 0.730176
vt 0.095960 0.769970
vt 0.032740 0.641742
vt 0.051055 0.685959
vt 0.014066 0.547860
vt 0.023403 0.594801
vt 0.014066 0.452139
vt 0.014066 0.500000
vt 0.032740 0.358259
vt 0.023403 0.405199
vt 0.069371 0.269824
vt 0.051055 0.314041
vt 0.122550 0.190235
vt 0.095960 0.230030
vt 0.190235 0.122550
vt 0.156392 0.156393
vt 0.269824 0.069370
vt 0.230030 0.095960
vt 0.358258 0.032740
vt 0.314041 0.051055
vt 0.452140 0.014066
vt 0.405199 0.023403
vt 0.547861 0.014066
vt 0.500000 0.014066
vn -0.9915 -0.1303 -0.0000
s 1
f 1/1/1 65/2/1 33/3/1
f 3/4/1 65/2/1 34/5/1
f 4/6/1 65/2/1 35/7/1
f 5/8/1 65/2/1 36/9/1
f 6/10/1 65/2/1 37/11/1
f 7/12/1 65/2/1 38/13/1
f 8/14/1 65/2/1 39/15/1
f 9/16/1 65/2/1 40/17/1
f 10/18/1 65/2/1 41/19/1
f 11/20/1 65/2/1 42/21/1
f 12/22/1 65/2/1 43/23/1
f 13/24/1 65/2/1 44/25/1
f 14/26/1 65/2/1 45/27/1
f 15/28/1 65/2/1 46/29/1
f 16/30/1 65/2/1 47/31/1
f 17/32/1 65/2/1 48/33/1
f 18/34/1 65/2/1 49/35/1
f 19/36/1 65/2/1 50/37/1
f 20/38/1 65/2/1 51/39/1
f 21/40/1 65/2/1 52/41/1
f 22/42/1 65/2/1 53/43/1
f 23/44/1 65/2/1 54/45/1
f 24/46/1 65/2/1 55/47/1
f 25/48/1 65/2/1 56/49/1
f 26/50/1 65/2/1 57/51/1
f 27/52/1 65/2/1 58/53/1
f 28/54/1 65/2/1 59/55/1
f 29/56/1 65/2/1 60/57/1
f 30/58/1 65/2/1 61/59/1
f 31/60/1 65/2/1 62/61/1
f 32/62/1 65/2/1 63/63/1
f 2/64/1 65/2/1 64/65/1
f 1/1/1 34/5/1 65/2/1
f 3/4/1 35/7/1 65/2/1
f 4/6/1 36/9/1 65/2/1
f 5/8/1 37/11/1 65/2/1
f 6/10/1 38/13/1 65/2/1
f 7/12/1 39/15/1 65/2/1
f 8/14/1 40/17/1 65/2/1
f 9/16/1 41/19/1 65/2/1
f 10/18/1 42/21/1 65/2/1
f 11/20/1 43/23/1 65/2/1
f 12/22/1 44/25/1 65/2/1
f 13/24/1 45/27/1 65/2/1
f 14/26/1 46/29/1 65/2/1
f 15/28/1 47/31/1 65/2/1
f 16/30/1 48/33/1 65/2/1
f 17/32/1 49/35/1 65/2/1
f 18/34/1 50/37/1 65/2/1
f 19/36/1 51/39/1 65/2/1
f 20/38/1 52/41/1 65/2/1
f 21/40/1 53/43/1 65/2/1
f 22/42/1 54/45/1 65/2/1
f 23/44/1 55/47/1 65/2/1
f 24/46/1 56/49/1 65/2/1
f 25/48/1 57/51/1 65/2/1
f 26/50/1 58/53/1 65/2/1
f 27/52/1 59/55/1 65/2/1
f 28/54/1 60/57/1 65/2/1
f 29/56/1 61/59/1 65/2/1
f 30/58/1 62/61/1 65/2/1
f 31/60/1 63/63/1 65/2/1
f 32/62/1 64/65/1 65/2/1
f 2/64/1 33/3/1 65/2/1
