# Blender v2.90.1 OBJ File: 'drumsetV2Export.blend'
# www.blender.org
o drumsetV4_DrumTop001_Cylinder.031
v 1.779500 1.913166 0.872159
v 1.709704 1.913166 0.861809
v 1.847944 1.913166 0.889307
v 1.914380 1.913166 0.913075
v 1.639229 1.913166 1.577348
v 1.568755 1.913166 0.861809
v 1.430514 1.913166 0.889307
v 1.300295 1.913166 0.943245
v 1.183100 1.913166 1.021552
v 1.083434 1.913166 1.121218
v 1.005127 1.913166 1.238413
v 0.951188 1.913166 1.368633
v 0.923690 1.913166 1.506873
v 0.923690 1.913166 1.647822
v 0.951188 1.913166 1.786062
v 1.005127 1.913166 1.916282
v 1.083434 1.913166 2.033477
v 1.183100 1.913166 2.133143
v 1.300295 1.913166 2.211450
v 1.430514 1.913166 2.265388
v 1.568755 1.913166 2.292886
v 1.709704 1.913166 2.292886
v 1.847944 1.913166 2.265388
v 1.978164 1.913166 2.211450
v 2.095359 1.913166 2.133143
v 2.195024 1.913166 2.033477
v 2.273332 1.913166 1.916282
v 2.327271 1.913166 1.786062
v 2.354768 1.913166 1.647822
v 2.354768 1.913166 1.506873
v 2.327271 1.913166 1.368633
v 2.273332 1.913166 1.238413
v 2.195024 1.913166 1.121218
v 2.095359 1.913166 1.021552
v 1.978164 1.913166 0.943245
v 2.038686 1.913166 0.979518
v 2.147642 1.913166 1.068935
v 2.237059 1.913166 1.177890
v 2.303502 1.913166 1.302197
v 2.344418 1.913166 1.437077
v 2.358233 1.913166 1.577348
v 2.344418 1.913166 1.717618
v 2.303502 1.913166 1.852498
v 2.237059 1.913166 1.976804
v 2.147642 1.913166 2.085760
v 2.038686 1.913166 2.175177
v 1.914380 1.913166 2.241620
v 1.779500 1.913166 2.282536
v 1.639229 1.913166 2.296351
v 1.498959 1.913166 2.282536
v 1.364078 1.913166 2.241620
v 1.239772 1.913166 2.175177
v 1.130817 1.913166 2.085760
v 1.041400 1.913166 1.976805
v 0.974957 1.913166 1.852498
v 0.934041 1.913166 1.717618
v 0.920226 1.913166 1.577348
v 0.934041 1.913166 1.437077
v 0.974956 1.913166 1.302197
v 1.041399 1.913166 1.177891
v 1.130817 1.913166 1.068935
v 1.239772 1.913166 0.979518
v 1.364078 1.913166 0.913075
v 1.498959 1.913166 0.872159
v 1.639229 1.913166 0.858344
vt 0.749846 0.983803
vt 0.720450 0.986699
vt 0.691055 0.688240
vt 0.778112 0.975229
vt 0.806378 0.966655
vt 0.832428 0.952731
vt 0.691054 0.989594
vt 0.661659 0.986699
vt 0.632263 0.983803
vt 0.603997 0.975229
vt 0.575731 0.966655
vt 0.549681 0.952731
vt 0.523631 0.938807
vt 0.500798 0.920068
vt 0.477964 0.901329
vt 0.459226 0.878496
vt 0.440487 0.855663
vt 0.426563 0.829613
vt 0.412639 0.803563
vt 0.404065 0.775297
vt 0.395490 0.747031
vt 0.392595 0.717635
vt 0.389700 0.688239
vt 0.392595 0.658844
vt 0.395490 0.629448
vt 0.404065 0.601182
vt 0.412639 0.572916
vt 0.426563 0.546866
vt 0.440487 0.520815
vt 0.459226 0.497982
vt 0.477965 0.475149
vt 0.500798 0.456411
vt 0.523631 0.437672
vt 0.549681 0.423748
vt 0.575731 0.409824
vt 0.603997 0.401249
vt 0.632263 0.392675
vt 0.661659 0.389780
vt 0.691054 0.386885
vt 0.720450 0.389780
vt 0.749846 0.392675
vt 0.778112 0.401249
vt 0.806378 0.409824
vt 0.832428 0.423748
vt 0.858478 0.437672
vt 0.881311 0.456411
vt 0.904144 0.475149
vt 0.922883 0.497983
vt 0.941622 0.520816
vt 0.955546 0.546866
vt 0.969470 0.572916
vt 0.978044 0.601182
vt 0.986619 0.629448
vt 0.989514 0.658844
vt 0.992409 0.688239
vt 0.989514 0.717635
vt 0.986619 0.747031
vt 0.978044 0.775297
vt 0.969470 0.803563
vt 0.955546 0.829613
vt 0.941622 0.855663
vt 0.922883 0.878496
vt 0.904145 0.901329
vt 0.881311 0.920068
vt 0.858478 0.938807
vn 0.0000 1.0000 -0.0000
s 1
f 1/1/1 2/2/1 5/3/1 3/4/1
f 4/5/1 3/4/1 5/3/1 35/6/1
f 65/7/1 6/8/1 5/3/1 2/2/1
f 64/9/1 7/10/1 5/3/1 6/8/1
f 63/11/1 8/12/1 5/3/1 7/10/1
f 62/13/1 9/14/1 5/3/1 8/12/1
f 61/15/1 10/16/1 5/3/1 9/14/1
f 60/17/1 11/18/1 5/3/1 10/16/1
f 59/19/1 12/20/1 5/3/1 11/18/1
f 58/21/1 13/22/1 5/3/1 12/20/1
f 57/23/1 14/24/1 5/3/1 13/22/1
f 56/25/1 15/26/1 5/3/1 14/24/1
f 55/27/1 16/28/1 5/3/1 15/26/1
f 54/29/1 17/30/1 5/3/1 16/28/1
f 53/31/1 18/32/1 5/3/1 17/30/1
f 52/33/1 19/34/1 5/3/1 18/32/1
f 51/35/1 20/36/1 5/3/1 19/34/1
f 50/37/1 21/38/1 5/3/1 20/36/1
f 49/39/1 22/40/1 5/3/1 21/38/1
f 48/41/1 23/42/1 5/3/1 22/40/1
f 47/43/1 24/44/1 5/3/1 23/42/1
f 46/45/1 25/46/1 5/3/1 24/44/1
f 45/47/1 26/48/1 5/3/1 25/46/1
f 44/49/1 27/50/1 5/3/1 26/48/1
f 43/51/1 28/52/1 5/3/1 27/50/1
f 42/53/1 29/54/1 5/3/1 28/52/1
f 41/55/1 30/56/1 5/3/1 29/54/1
f 40/57/1 31/58/1 5/3/1 30/56/1
f 39/59/1 32/60/1 5/3/1 31/58/1
f 38/61/1 33/62/1 5/3/1 32/60/1
f 37/63/1 34/64/1 5/3/1 33/62/1
f 36/65/1 35/6/1 5/3/1 34/64/1
