# Blender v2.93.5 OBJ File: 'drumsetV2Export.blend'
# www.blender.org
mtllib drumsetV4_DrumTop.mtl
o drumsetV4_DrumTop_Cylinder.030
v 1.491341 1.984593 -2.039927
v 1.369270 1.984593 -2.027419
v 1.613508 1.984593 -2.028380
v 1.731074 1.984593 -1.993222
v 1.839522 1.984593 -1.935803
v 1.934684 1.984593 -1.858330
v 2.012903 1.984593 -1.763781
v 2.071174 1.984593 -1.655788
v 2.107257 1.984593 -1.538503
v 2.119766 1.984593 -1.416431
v 2.108219 1.984593 -1.294265
v 2.073060 1.984593 -1.176699
v 2.015641 1.984593 -1.068251
v 1.938168 1.984593 -0.973089
v 1.843619 1.984593 -0.894869
v 1.735626 1.984593 -0.836598
v 1.618341 1.984593 -0.800516
v 1.496269 1.984593 -0.788007
v 1.374103 1.984593 -0.799554
v 1.256537 1.984593 -0.834713
v 1.148089 1.984593 -0.892132
v 1.052927 1.984593 -0.969604
v 0.974707 1.984593 -1.064154
v 0.916436 1.984593 -1.172146
v 0.880353 1.984593 -1.289432
v 0.867845 1.984593 -1.411504
v 0.879392 1.984593 -1.533670
v 0.914551 1.984593 -1.651236
v 0.971970 1.984593 -1.759684
v 1.049443 1.984593 -1.854846
v 1.143992 1.984593 -1.933065
v 1.251984 1.984593 -1.991336
v 1.429999 1.984593 -2.036669
v 1.552708 1.984593 -2.037153
v 1.673154 1.984593 -2.013687
v 1.786707 1.984593 -1.967174
v 1.889004 1.984593 -1.899402
v 1.976114 1.984593 -1.812975
v 2.044689 1.984593 -1.711215
v 2.092094 1.984593 -1.598031
v 2.116507 1.984593 -1.477774
v 2.116991 1.984593 -1.355065
v 2.093525 1.984593 -1.234619
v 2.047012 1.984593 -1.121066
v 1.979240 1.984593 -1.018769
v 1.892813 1.984593 -0.931659
v 1.791053 1.984593 -0.863083
v 1.677869 1.984593 -0.815678
v 1.557612 1.984593 -0.791265
v 1.434903 1.984593 -0.790782
v 1.314457 1.984593 -0.814248
v 1.200904 1.984593 -0.860760
v 1.098606 1.984593 -0.928532
v 1.011497 1.984593 -1.014959
v 0.942921 1.984593 -1.116720
v 0.895516 1.984593 -1.229904
v 0.871103 1.984593 -1.350161
v 0.870620 1.984593 -1.472870
v 0.894086 1.984593 -1.593316
v 0.940598 1.984593 -1.706869
v 1.008370 1.984593 -1.809166
v 1.094797 1.984593 -1.896276
v 1.196558 1.984593 -1.964851
v 1.309742 1.984593 -2.012256
v 1.493805 1.984593 -1.413967
vt 0.323066 0.534159
vt 0.271584 0.275337
vt 0.347818 0.526650
vt 0.271584 0.539230
vt 0.297325 0.536694
vt 0.220101 0.534159
vt 0.245842 0.536694
vt 0.170596 0.519142
vt 0.195349 0.526650
vt 0.124973 0.494756
vt 0.147785 0.506949
vt 0.084984 0.461937
vt 0.104978 0.478346
vt 0.052165 0.421948
vt 0.068574 0.441942
vt 0.027779 0.376325
vt 0.039972 0.399136
vt 0.012762 0.326820
vt 0.020270 0.351572
vt 0.007691 0.275337
vt 0.010227 0.301079
vt 0.012762 0.223854
vt 0.010227 0.249596
vt 0.027779 0.174350
vt 0.020270 0.199102
vt 0.052165 0.128726
vt 0.039972 0.151538
vt 0.084984 0.088737
vt 0.068574 0.108732
vt 0.124973 0.055919
vt 0.104978 0.072328
vt 0.170596 0.031533
vt 0.147785 0.043726
vt 0.220101 0.016516
vt 0.195349 0.024024
vt 0.271584 0.011445
vt 0.245842 0.013980
vt 0.323066 0.016516
vt 0.297325 0.013980
vt 0.372571 0.031533
vt 0.347819 0.024024
vt 0.418194 0.055919
vt 0.395382 0.043726
vt 0.458183 0.088737
vt 0.438189 0.072328
vt 0.491002 0.128727
vt 0.474593 0.108732
vt 0.515388 0.174350
vt 0.503195 0.151538
vt 0.530405 0.223854
vt 0.522897 0.199102
vt 0.535476 0.275337
vt 0.532940 0.249596
vt 0.530405 0.326820
vt 0.532940 0.301079
vt 0.515388 0.376324
vt 0.522897 0.351572
vt 0.491002 0.421948
vt 0.503195 0.399136
vt 0.458184 0.461937
vt 0.474593 0.441943
vt 0.418194 0.494756
vt 0.438189 0.478346
vt 0.372571 0.519142
vt 0.395382 0.506949
vn -0.0000 1.0000 -0.0000
usemtl DrumTop
s 1
f 1/1/1 65/2/1 34/3/1
f 2/4/1 65/2/1 33/5/1
f 32/6/1 65/2/1 64/7/1
f 31/8/1 65/2/1 63/9/1
f 30/10/1 65/2/1 62/11/1
f 29/12/1 65/2/1 61/13/1
f 28/14/1 65/2/1 60/15/1
f 27/16/1 65/2/1 59/17/1
f 26/18/1 65/2/1 58/19/1
f 25/20/1 65/2/1 57/21/1
f 24/22/1 65/2/1 56/23/1
f 23/24/1 65/2/1 55/25/1
f 22/26/1 65/2/1 54/27/1
f 21/28/1 65/2/1 53/29/1
f 20/30/1 65/2/1 52/31/1
f 19/32/1 65/2/1 51/33/1
f 18/34/1 65/2/1 50/35/1
f 17/36/1 65/2/1 49/37/1
f 16/38/1 65/2/1 48/39/1
f 15/40/1 65/2/1 47/41/1
f 14/42/1 65/2/1 46/43/1
f 13/44/1 65/2/1 45/45/1
f 12/46/1 65/2/1 44/47/1
f 11/48/1 65/2/1 43/49/1
f 10/50/1 65/2/1 42/51/1
f 9/52/1 65/2/1 41/53/1
f 8/54/1 65/2/1 40/55/1
f 7/56/1 65/2/1 39/57/1
f 6/58/1 65/2/1 38/59/1
f 5/60/1 65/2/1 37/61/1
f 4/62/1 65/2/1 36/63/1
f 3/64/1 65/2/1 35/65/1
f 1/1/1 33/5/1 65/2/1
f 2/4/1 64/7/1 65/2/1
f 32/6/1 63/9/1 65/2/1
f 31/8/1 62/11/1 65/2/1
f 30/10/1 61/13/1 65/2/1
f 29/12/1 60/15/1 65/2/1
f 28/14/1 59/17/1 65/2/1
f 27/16/1 58/19/1 65/2/1
f 26/18/1 57/21/1 65/2/1
f 25/20/1 56/23/1 65/2/1
f 24/22/1 55/25/1 65/2/1
f 23/24/1 54/27/1 65/2/1
f 22/26/1 53/29/1 65/2/1
f 21/28/1 52/31/1 65/2/1
f 20/30/1 51/33/1 65/2/1
f 19/32/1 50/35/1 65/2/1
f 18/34/1 49/37/1 65/2/1
f 17/36/1 48/39/1 65/2/1
f 16/38/1 47/41/1 65/2/1
f 15/40/1 46/43/1 65/2/1
f 14/42/1 45/45/1 65/2/1
f 13/44/1 44/47/1 65/2/1
f 12/46/1 43/49/1 65/2/1
f 11/48/1 42/51/1 65/2/1
f 10/50/1 41/53/1 65/2/1
f 9/52/1 40/55/1 65/2/1
f 8/54/1 39/57/1 65/2/1
f 7/56/1 38/59/1 65/2/1
f 6/58/1 37/61/1 65/2/1
f 5/60/1 36/63/1 65/2/1
f 4/62/1 35/65/1 65/2/1
f 3/64/1 34/3/1 65/2/1
